<svg viewBox="0 0 1200 294" xmlns="http://www.w3.org/2000/svg" role="img" aria-labelledby="t d">
<title id="t">GitHub activity</title>
<desc id="d">502 contributions over the last year, shown as a heat-map that animates in column by column.</desc>
<style>
  .serif{font-family:Georgia,Charter,"Iowan Old Style","Times New Roman",serif}
  .mono{font-family:"SF Mono","DM Mono","JetBrains Mono",ui-monospace,Menlo,monospace}
  .lbl{font-family:"SF Mono","DM Mono",ui-monospace,Menlo,monospace}
  .rise{opacity:0;animation:rise .75s cubic-bezier(.25,1,.5,1) both}
  @keyframes rise{from{opacity:0;transform:translateY(10px)}to{opacity:1;transform:translateY(0)}}
  .cell{transform-box:fill-box;transform-origin:center;opacity:0;animation:cin .5s cubic-bezier(.25,1,.5,1) both}
  @keyframes cin{from{opacity:0;transform:scale(.3)}to{opacity:1;transform:scale(1)}}
</style>
<rect width="1200" height="294" rx="16" fill="#faf9f5"/>
<text class="mono rise" style="animation-delay:.05s" x="56" y="58" font-size="12" letter-spacing="2" fill="#5e5d59">LAST YEAR ON GITHUB</text>
<text class="serif rise" style="animation-delay:.12s" x="54" y="104" font-size="34" fill="#141413">502 contributions</text>
<g><text class="lbl" x="120" y="138" font-size="12" fill="#8a8780">Jun</text><text class="lbl" x="162" y="138" font-size="12" fill="#8a8780">Jul</text><text class="lbl" x="204" y="138" font-size="12" fill="#8a8780">Aug</text><text class="lbl" x="274" y="138" font-size="12" fill="#8a8780">Sep</text><text class="lbl" x="330" y="138" font-size="12" fill="#8a8780">Oct</text><text class="lbl" x="386" y="138" font-size="12" fill="#8a8780">Nov</text><text class="lbl" x="456" y="138" font-size="12" fill="#8a8780">Dec</text><text class="lbl" x="512" y="138" font-size="12" fill="#8a8780">Jan</text><text class="lbl" x="568" y="138" font-size="12" fill="#8a8780">Feb</text><text class="lbl" x="624" y="138" font-size="12" fill="#8a8780">Mar</text><text class="lbl" x="694" y="138" font-size="12" fill="#8a8780">Apr</text><text class="lbl" x="750" y="138" font-size="12" fill="#8a8780">May</text><text class="lbl" x="820" y="138" font-size="12" fill="#8a8780">Jun</text></g>
<g><text class="lbl" x="100" y="173" font-size="11" fill="#8a8780" text-anchor="end">Mon</text><text class="lbl" x="100" y="201" font-size="11" fill="#8a8780" text-anchor="end">Wed</text><text class="lbl" x="100" y="229" font-size="11" fill="#8a8780" text-anchor="end">Fri</text></g>
<g><rect class="cell" style="animation-delay:0.3s" x="120" y="150" width="11" height="11" rx="2" fill="#e9e5d8"/><rect class="cell" style="animation-delay:0.318s" x="134" y="150" width="11" height="11" rx="2" fill="#e9e5d8"/><rect class="cell" style="animation-delay:0.336s" x="148" y="150" width="11" height="11" rx="2" fill="#e9e5d8"/><rect class="cell" style="animation-delay:0.354s" x="162" y="150" width="11" height="11" rx="2" fill="#e9e5d8"/><rect class="cell" style="animation-delay:0.372s" x="176" y="150" width="11" height="11" rx="2" fill="#e9e5d8"/><rect class="cell" style="animation-delay:0.39s" x="190" y="150" width="11" height="11" rx="2" fill="#e9e5d8"/><rect class="cell" style="animation-delay:0.408s" x="204" y="150" width="11" height="11" rx="2" fill="#e9e5d8"/><rect class="cell" style="animation-delay:0.426s" x="218" y="150" width="11" height="11" rx="2" fill="#e9e5d8"/><rect class="cell" style="animation-delay:0.444s" x="232" y="150" width="11" height="11" rx="2" fill="#e9e5d8"/><rect class="cell" style="animation-delay:0.462s" x="246" y="150" width="11" height="11" rx="2" fill="#e9e5d8"/><rect class="cell" style="animation-delay:0.48s" x="260" y="150" width="11" height="11" rx="2" fill="#e9e5d8"/><rect class="cell" style="animation-delay:0.498s" x="274" y="150" width="11" height="11" rx="2" fill="#e9e5d8"/><rect class="cell" style="animation-delay:0.516s" x="288" y="150" width="11" height="11" rx="2" fill="#e9e5d8"/><rect class="cell" style="animation-delay:0.534s" x="302" y="150" width="11" height="11" rx="2" fill="#e9e5d8"/><rect class="cell" style="animation-delay:0.552s" x="316" y="150" width="11" height="11" rx="2" fill="#e9e5d8"/><rect class="cell" style="animation-delay:0.57s" x="330" y="150" width="11" height="11" rx="2" fill="#e9e5d8"/><rect class="cell" style="animation-delay:0.588s" x="344" y="150" width="11" height="11" rx="2" fill="#e9e5d8"/><rect class="cell" style="animation-delay:0.606s" x="358" y="150" width="11" height="11" rx="2" fill="#e9e5d8"/><rect class="cell" style="animation-delay:0.624s" x="372" y="150" width="11" height="11" rx="2" fill="#e9e5d8"/><rect class="cell" style="animation-delay:0.642s" x="386" y="150" width="11" height="11" rx="2" fill="#e9e5d8"/><rect class="cell" style="animation-delay:0.66s" x="400" y="150" width="11" height="11" rx="2" fill="#c6d8a6"/><rect class="cell" style="animation-delay:0.678s" x="414" y="150" width="11" height="11" rx="2" fill="#e9e5d8"/><rect class="cell" style="animation-delay:0.696s" x="428" y="150" width="11" height="11" rx="2" fill="#e9e5d8"/><rect class="cell" style="animation-delay:0.714s" x="442" y="150" width="11" height="11" rx="2" fill="#e9e5d8"/><rect class="cell" style="animation-delay:0.732s" x="456" y="150" width="11" height="11" rx="2" fill="#c6d8a6"/><rect class="cell" style="animation-delay:0.75s" x="470" y="150" width="11" height="11" rx="2" fill="#c6d8a6"/><rect class="cell" style="animation-delay:0.768s" x="484" y="150" width="11" height="11" rx="2" fill="#e9e5d8"/><rect class="cell" style="animation-delay:0.786s" x="498" y="150" width="11" height="11" rx="2" fill="#e9e5d8"/><rect class="cell" style="animation-delay:0.804s" x="512" y="150" width="11" height="11" rx="2" fill="#c6d8a6"/><rect class="cell" style="animation-delay:0.822s" x="526" y="150" width="11" height="11" rx="2" fill="#e9e5d8"/><rect class="cell" style="animation-delay:0.84s" x="540" y="150" width="11" height="11" rx="2" fill="#e9e5d8"/><rect class="cell" style="animation-delay:0.858s" x="554" y="150" width="11" height="11" rx="2" fill="#e9e5d8"/><rect class="cell" style="animation-delay:0.876s" x="568" y="150" width="11" height="11" rx="2" fill="#e9e5d8"/><rect class="cell" style="animation-delay:0.894s" x="582" y="150" width="11" height="11" rx="2" fill="#e9e5d8"/><rect class="cell" style="animation-delay:0.912s" x="596" y="150" width="11" height="11" rx="2" fill="#e9e5d8"/><rect class="cell" style="animation-delay:0.93s" x="610" y="150" width="11" height="11" rx="2" fill="#e9e5d8"/><rect class="cell" style="animation-delay:0.948s" x="624" y="150" width="11" height="11" rx="2" fill="#e9e5d8"/><rect class="cell" style="animation-delay:0.966s" x="638" y="150" width="11" height="11" rx="2" fill="#e9e5d8"/><rect class="cell" style="animation-delay:0.984s" x="652" y="150" width="11" height="11" rx="2" fill="#e9e5d8"/><rect class="cell" style="animation-delay:1.002s" x="666" y="150" width="11" height="11" rx="2" fill="#e9e5d8"/><rect class="cell" style="animation-delay:1.02s" x="680" y="150" width="11" height="11" rx="2" fill="#e9e5d8"/><rect class="cell" style="animation-delay:1.038s" x="694" y="150" width="11" height="11" rx="2" fill="#e9e5d8"/><rect class="cell" style="animation-delay:1.056s" x="708" y="150" width="11" height="11" rx="2" fill="#e9e5d8"/><rect class="cell" style="animation-delay:1.074s" x="722" y="150" width="11" height="11" rx="2" fill="#e9e5d8"/><rect class="cell" style="animation-delay:1.092s" x="736" y="150" width="11" height="11" rx="2" fill="#e9e5d8"/><rect class="cell" style="animation-delay:1.11s" x="750" y="150" width="11" height="11" rx="2" fill="#e9e5d8"/><rect class="cell" style="animation-delay:1.128s" x="764" y="150" width="11" height="11" rx="2" fill="#e9e5d8"/><rect class="cell" style="animation-delay:1.146s" x="778" y="150" width="11" height="11" rx="2" fill="#e9e5d8"/><rect class="cell" style="animation-delay:1.164s" x="792" y="150" width="11" height="11" rx="2" fill="#e9e5d8"/><rect class="cell" style="animation-delay:1.182s" x="806" y="150" width="11" height="11" rx="2" fill="#e9e5d8"/><rect class="cell" style="animation-delay:1.2s" x="820" y="150" width="11" height="11" rx="2" fill="#e9e5d8"/><rect class="cell" style="animation-delay:1.218s" x="834" y="150" width="11" height="11" rx="2" fill="#e9e5d8"/><rect class="cell" style="animation-delay:1.236s" x="848" y="150" width="11" height="11" rx="2" fill="#e9e5d8"/><rect class="cell" style="animation-delay:0.3s" x="120" y="164" width="11" height="11" rx="2" fill="#e9e5d8"/><rect class="cell" style="animation-delay:0.318s" x="134" y="164" width="11" height="11" rx="2" fill="#e9e5d8"/><rect class="cell" style="animation-delay:0.336s" x="148" y="164" width="11" height="11" rx="2" fill="#e9e5d8"/><rect class="cell" style="animation-delay:0.354s" x="162" y="164" width="11" height="11" rx="2" fill="#e9e5d8"/><rect class="cell" style="animation-delay:0.372s" x="176" y="164" width="11" height="11" rx="2" fill="#e9e5d8"/><rect class="cell" style="animation-delay:0.39s" x="190" y="164" width="11" height="11" rx="2" fill="#e9e5d8"/><rect class="cell" style="animation-delay:0.408s" x="204" y="164" width="11" height="11" rx="2" fill="#e9e5d8"/><rect class="cell" style="animation-delay:0.426s" x="218" y="164" width="11" height="11" rx="2" fill="#e9e5d8"/><rect class="cell" style="animation-delay:0.444s" x="232" y="164" width="11" height="11" rx="2" fill="#e9e5d8"/><rect class="cell" style="animation-delay:0.462s" x="246" y="164" width="11" height="11" rx="2" fill="#e9e5d8"/><rect class="cell" style="animation-delay:0.48s" x="260" y="164" width="11" height="11" rx="2" fill="#e9e5d8"/><rect class="cell" style="animation-delay:0.498s" x="274" y="164" width="11" height="11" rx="2" fill="#e9e5d8"/><rect class="cell" style="animation-delay:0.516s" x="288" y="164" width="11" height="11" rx="2" fill="#e9e5d8"/><rect class="cell" style="animation-delay:0.534s" x="302" y="164" width="11" height="11" rx="2" fill="#e9e5d8"/><rect class="cell" style="animation-delay:0.552s" x="316" y="164" width="11" height="11" rx="2" fill="#e9e5d8"/><rect class="cell" style="animation-delay:0.57s" x="330" y="164" width="11" height="11" rx="2" fill="#e9e5d8"/><rect class="cell" style="animation-delay:0.588s" x="344" y="164" width="11" height="11" rx="2" fill="#e9e5d8"/><rect class="cell" style="animation-delay:0.606s" x="358" y="164" width="11" height="11" rx="2" fill="#c6d8a6"/><rect class="cell" style="animation-delay:0.624s" x="372" y="164" width="11" height="11" rx="2" fill="#e9e5d8"/><rect class="cell" style="animation-delay:0.642s" x="386" y="164" width="11" height="11" rx="2" fill="#e9e5d8"/><rect class="cell" style="animation-delay:0.66s" x="400" y="164" width="11" height="11" rx="2" fill="#e9e5d8"/><rect class="cell" style="animation-delay:0.678s" x="414" y="164" width="11" height="11" rx="2" fill="#c6d8a6"/><rect class="cell" style="animation-delay:0.696s" x="428" y="164" width="11" height="11" rx="2" fill="#e9e5d8"/><rect class="cell" style="animation-delay:0.714s" x="442" y="164" width="11" height="11" rx="2" fill="#e9e5d8"/><rect class="cell" style="animation-delay:0.732s" x="456" y="164" width="11" height="11" rx="2" fill="#c6d8a6"/><rect class="cell" style="animation-delay:0.75s" x="470" y="164" width="11" height="11" rx="2" fill="#c6d8a6"/><rect class="cell" style="animation-delay:0.768s" x="484" y="164" width="11" height="11" rx="2" fill="#e9e5d8"/><rect class="cell" style="animation-delay:0.786s" x="498" y="164" width="11" height="11" rx="2" fill="#c6d8a6"/><rect class="cell" style="animation-delay:0.804s" x="512" y="164" width="11" height="11" rx="2" fill="#c6d8a6"/><rect class="cell" style="animation-delay:0.822s" x="526" y="164" width="11" height="11" rx="2" fill="#e9e5d8"/><rect class="cell" style="animation-delay:0.84s" x="540" y="164" width="11" height="11" rx="2" fill="#e9e5d8"/><rect class="cell" style="animation-delay:0.858s" x="554" y="164" width="11" height="11" rx="2" fill="#e9e5d8"/><rect class="cell" style="animation-delay:0.876s" x="568" y="164" width="11" height="11" rx="2" fill="#e9e5d8"/><rect class="cell" style="animation-delay:0.894s" x="582" y="164" width="11" height="11" rx="2" fill="#e9e5d8"/><rect class="cell" style="animation-delay:0.912s" x="596" y="164" width="11" height="11" rx="2" fill="#e9e5d8"/><rect class="cell" style="animation-delay:0.93s" x="610" y="164" width="11" height="11" rx="2" fill="#e9e5d8"/><rect class="cell" style="animation-delay:0.948s" x="624" y="164" width="11" height="11" rx="2" fill="#e9e5d8"/><rect class="cell" style="animation-delay:0.966s" x="638" y="164" width="11" height="11" rx="2" fill="#e9e5d8"/><rect class="cell" style="animation-delay:0.984s" x="652" y="164" width="11" height="11" rx="2" fill="#e9e5d8"/><rect class="cell" style="animation-delay:1.002s" x="666" y="164" width="11" height="11" rx="2" fill="#e9e5d8"/><rect class="cell" style="animation-delay:1.02s" x="680" y="164" width="11" height="11" rx="2" fill="#e9e5d8"/><rect class="cell" style="animation-delay:1.038s" x="694" y="164" width="11" height="11" rx="2" fill="#e9e5d8"/><rect class="cell" style="animation-delay:1.056s" x="708" y="164" width="11" height="11" rx="2" fill="#e9e5d8"/><rect class="cell" style="animation-delay:1.074s" x="722" y="164" width="11" height="11" rx="2" fill="#e9e5d8"/><rect class="cell" style="animation-delay:1.092s" x="736" y="164" width="11" height="11" rx="2" fill="#5e9a43"/><rect class="cell" style="animation-delay:1.11s" x="750" y="164" width="11" height="11" rx="2" fill="#e9e5d8"/><rect class="cell" style="animation-delay:1.128s" x="764" y="164" width="11" height="11" rx="2" fill="#e9e5d8"/><rect class="cell" style="animation-delay:1.146s" x="778" y="164" width="11" height="11" rx="2" fill="#5e9a43"/><rect class="cell" style="animation-delay:1.164s" x="792" y="164" width="11" height="11" rx="2" fill="#3a6b28"/><rect class="cell" style="animation-delay:1.182s" x="806" y="164" width="11" height="11" rx="2" fill="#5e9a43"/><rect class="cell" style="animation-delay:1.2s" x="820" y="164" width="11" height="11" rx="2" fill="#5e9a43"/><rect class="cell" style="animation-delay:1.218s" x="834" y="164" width="11" height="11" rx="2" fill="#93bd68"/><rect class="cell" style="animation-delay:1.236s" x="848" y="164" width="11" height="11" rx="2" fill="#c6d8a6"/><rect class="cell" style="animation-delay:0.3s" x="120" y="178" width="11" height="11" rx="2" fill="#e9e5d8"/><rect class="cell" style="animation-delay:0.318s" x="134" y="178" width="11" height="11" rx="2" fill="#e9e5d8"/><rect class="cell" style="animation-delay:0.336s" x="148" y="178" width="11" height="11" rx="2" fill="#e9e5d8"/><rect class="cell" style="animation-delay:0.354s" x="162" y="178" width="11" height="11" rx="2" fill="#e9e5d8"/><rect class="cell" style="animation-delay:0.372s" x="176" y="178" width="11" height="11" rx="2" fill="#e9e5d8"/><rect class="cell" style="animation-delay:0.39s" x="190" y="178" width="11" height="11" rx="2" fill="#e9e5d8"/><rect class="cell" style="animation-delay:0.408s" x="204" y="178" width="11" height="11" rx="2" fill="#e9e5d8"/><rect class="cell" style="animation-delay:0.426s" x="218" y="178" width="11" height="11" rx="2" fill="#e9e5d8"/><rect class="cell" style="animation-delay:0.444s" x="232" y="178" width="11" height="11" rx="2" fill="#e9e5d8"/><rect class="cell" style="animation-delay:0.462s" x="246" y="178" width="11" height="11" rx="2" fill="#e9e5d8"/><rect class="cell" style="animation-delay:0.48s" x="260" y="178" width="11" height="11" rx="2" fill="#e9e5d8"/><rect class="cell" style="animation-delay:0.498s" x="274" y="178" width="11" height="11" rx="2" fill="#e9e5d8"/><rect class="cell" style="animation-delay:0.516s" x="288" y="178" width="11" height="11" rx="2" fill="#e9e5d8"/><rect class="cell" style="animation-delay:0.534s" x="302" y="178" width="11" height="11" rx="2" fill="#e9e5d8"/><rect class="cell" style="animation-delay:0.552s" x="316" y="178" width="11" height="11" rx="2" fill="#e9e5d8"/><rect class="cell" style="animation-delay:0.57s" x="330" y="178" width="11" height="11" rx="2" fill="#e9e5d8"/><rect class="cell" style="animation-delay:0.588s" x="344" y="178" width="11" height="11" rx="2" fill="#e9e5d8"/><rect class="cell" style="animation-delay:0.606s" x="358" y="178" width="11" height="11" rx="2" fill="#e9e5d8"/><rect class="cell" style="animation-delay:0.624s" x="372" y="178" width="11" height="11" rx="2" fill="#c6d8a6"/><rect class="cell" style="animation-delay:0.642s" x="386" y="178" width="11" height="11" rx="2" fill="#e9e5d8"/><rect class="cell" style="animation-delay:0.66s" x="400" y="178" width="11" height="11" rx="2" fill="#e9e5d8"/><rect class="cell" style="animation-delay:0.678s" x="414" y="178" width="11" height="11" rx="2" fill="#e9e5d8"/><rect class="cell" style="animation-delay:0.696s" x="428" y="178" width="11" height="11" rx="2" fill="#e9e5d8"/><rect class="cell" style="animation-delay:0.714s" x="442" y="178" width="11" height="11" rx="2" fill="#e9e5d8"/><rect class="cell" style="animation-delay:0.732s" x="456" y="178" width="11" height="11" rx="2" fill="#3a6b28"/><rect class="cell" style="animation-delay:0.75s" x="470" y="178" width="11" height="11" rx="2" fill="#e9e5d8"/><rect class="cell" style="animation-delay:0.768s" x="484" y="178" width="11" height="11" rx="2" fill="#e9e5d8"/><rect class="cell" style="animation-delay:0.786s" x="498" y="178" width="11" height="11" rx="2" fill="#e9e5d8"/><rect class="cell" style="animation-delay:0.804s" x="512" y="178" width="11" height="11" rx="2" fill="#e9e5d8"/><rect class="cell" style="animation-delay:0.822s" x="526" y="178" width="11" height="11" rx="2" fill="#c6d8a6"/><rect class="cell" style="animation-delay:0.84s" x="540" y="178" width="11" height="11" rx="2" fill="#e9e5d8"/><rect class="cell" style="animation-delay:0.858s" x="554" y="178" width="11" height="11" rx="2" fill="#e9e5d8"/><rect class="cell" style="animation-delay:0.876s" x="568" y="178" width="11" height="11" rx="2" fill="#e9e5d8"/><rect class="cell" style="animation-delay:0.894s" x="582" y="178" width="11" height="11" rx="2" fill="#e9e5d8"/><rect class="cell" style="animation-delay:0.912s" x="596" y="178" width="11" height="11" rx="2" fill="#e9e5d8"/><rect class="cell" style="animation-delay:0.93s" x="610" y="178" width="11" height="11" rx="2" fill="#e9e5d8"/><rect class="cell" style="animation-delay:0.948s" x="624" y="178" width="11" height="11" rx="2" fill="#e9e5d8"/><rect class="cell" style="animation-delay:0.966s" x="638" y="178" width="11" height="11" rx="2" fill="#c6d8a6"/><rect class="cell" style="animation-delay:0.984s" x="652" y="178" width="11" height="11" rx="2" fill="#93bd68"/><rect class="cell" style="animation-delay:1.002s" x="666" y="178" width="11" height="11" rx="2" fill="#e9e5d8"/><rect class="cell" style="animation-delay:1.02s" x="680" y="178" width="11" height="11" rx="2" fill="#e9e5d8"/><rect class="cell" style="animation-delay:1.038s" x="694" y="178" width="11" height="11" rx="2" fill="#e9e5d8"/><rect class="cell" style="animation-delay:1.056s" x="708" y="178" width="11" height="11" rx="2" fill="#e9e5d8"/><rect class="cell" style="animation-delay:1.074s" x="722" y="178" width="11" height="11" rx="2" fill="#c6d8a6"/><rect class="cell" style="animation-delay:1.092s" x="736" y="178" width="11" height="11" rx="2" fill="#93bd68"/><rect class="cell" style="animation-delay:1.11s" x="750" y="178" width="11" height="11" rx="2" fill="#e9e5d8"/><rect class="cell" style="animation-delay:1.128s" x="764" y="178" width="11" height="11" rx="2" fill="#e9e5d8"/><rect class="cell" style="animation-delay:1.146s" x="778" y="178" width="11" height="11" rx="2" fill="#e9e5d8"/><rect class="cell" style="animation-delay:1.164s" x="792" y="178" width="11" height="11" rx="2" fill="#5e9a43"/><rect class="cell" style="animation-delay:1.182s" x="806" y="178" width="11" height="11" rx="2" fill="#93bd68"/><rect class="cell" style="animation-delay:1.2s" x="820" y="178" width="11" height="11" rx="2" fill="#93bd68"/><rect class="cell" style="animation-delay:1.218s" x="834" y="178" width="11" height="11" rx="2" fill="#5e9a43"/><rect class="cell" style="animation-delay:1.236s" x="848" y="178" width="11" height="11" rx="2" fill="#e9e5d8"/><rect class="cell" style="animation-delay:0.3s" x="120" y="192" width="11" height="11" rx="2" fill="#e9e5d8"/><rect class="cell" style="animation-delay:0.318s" x="134" y="192" width="11" height="11" rx="2" fill="#e9e5d8"/><rect class="cell" style="animation-delay:0.336s" x="148" y="192" width="11" height="11" rx="2" fill="#e9e5d8"/><rect class="cell" style="animation-delay:0.354s" x="162" y="192" width="11" height="11" rx="2" fill="#e9e5d8"/><rect class="cell" style="animation-delay:0.372s" x="176" y="192" width="11" height="11" rx="2" fill="#e9e5d8"/><rect class="cell" style="animation-delay:0.39s" x="190" y="192" width="11" height="11" rx="2" fill="#e9e5d8"/><rect class="cell" style="animation-delay:0.408s" x="204" y="192" width="11" height="11" rx="2" fill="#e9e5d8"/><rect class="cell" style="animation-delay:0.426s" x="218" y="192" width="11" height="11" rx="2" fill="#e9e5d8"/><rect class="cell" style="animation-delay:0.444s" x="232" y="192" width="11" height="11" rx="2" fill="#e9e5d8"/><rect class="cell" style="animation-delay:0.462s" x="246" y="192" width="11" height="11" rx="2" fill="#e9e5d8"/><rect class="cell" style="animation-delay:0.48s" x="260" y="192" width="11" height="11" rx="2" fill="#e9e5d8"/><rect class="cell" style="animation-delay:0.498s" x="274" y="192" width="11" height="11" rx="2" fill="#e9e5d8"/><rect class="cell" style="animation-delay:0.516s" x="288" y="192" width="11" height="11" rx="2" fill="#e9e5d8"/><rect class="cell" style="animation-delay:0.534s" x="302" y="192" width="11" height="11" rx="2" fill="#e9e5d8"/><rect class="cell" style="animation-delay:0.552s" x="316" y="192" width="11" height="11" rx="2" fill="#e9e5d8"/><rect class="cell" style="animation-delay:0.57s" x="330" y="192" width="11" height="11" rx="2" fill="#e9e5d8"/><rect class="cell" style="animation-delay:0.588s" x="344" y="192" width="11" height="11" rx="2" fill="#e9e5d8"/><rect class="cell" style="animation-delay:0.606s" x="358" y="192" width="11" height="11" rx="2" fill="#e9e5d8"/><rect class="cell" style="animation-delay:0.624s" x="372" y="192" width="11" height="11" rx="2" fill="#e9e5d8"/><rect class="cell" style="animation-delay:0.642s" x="386" y="192" width="11" height="11" rx="2" fill="#e9e5d8"/><rect class="cell" style="animation-delay:0.66s" x="400" y="192" width="11" height="11" rx="2" fill="#e9e5d8"/><rect class="cell" style="animation-delay:0.678s" x="414" y="192" width="11" height="11" rx="2" fill="#e9e5d8"/><rect class="cell" style="animation-delay:0.696s" x="428" y="192" width="11" height="11" rx="2" fill="#e9e5d8"/><rect class="cell" style="animation-delay:0.714s" x="442" y="192" width="11" height="11" rx="2" fill="#e9e5d8"/><rect class="cell" style="animation-delay:0.732s" x="456" y="192" width="11" height="11" rx="2" fill="#e9e5d8"/><rect class="cell" style="animation-delay:0.75s" x="470" y="192" width="11" height="11" rx="2" fill="#e9e5d8"/><rect class="cell" style="animation-delay:0.768s" x="484" y="192" width="11" height="11" rx="2" fill="#e9e5d8"/><rect class="cell" style="animation-delay:0.786s" x="498" y="192" width="11" height="11" rx="2" fill="#e9e5d8"/><rect class="cell" style="animation-delay:0.804s" x="512" y="192" width="11" height="11" rx="2" fill="#e9e5d8"/><rect class="cell" style="animation-delay:0.822s" x="526" y="192" width="11" height="11" rx="2" fill="#c6d8a6"/><rect class="cell" style="animation-delay:0.84s" x="540" y="192" width="11" height="11" rx="2" fill="#e9e5d8"/><rect class="cell" style="animation-delay:0.858s" x="554" y="192" width="11" height="11" rx="2" fill="#e9e5d8"/><rect class="cell" style="animation-delay:0.876s" x="568" y="192" width="11" height="11" rx="2" fill="#e9e5d8"/><rect class="cell" style="animation-delay:0.894s" x="582" y="192" width="11" height="11" rx="2" fill="#e9e5d8"/><rect class="cell" style="animation-delay:0.912s" x="596" y="192" width="11" height="11" rx="2" fill="#e9e5d8"/><rect class="cell" style="animation-delay:0.93s" x="610" y="192" width="11" height="11" rx="2" fill="#e9e5d8"/><rect class="cell" style="animation-delay:0.948s" x="624" y="192" width="11" height="11" rx="2" fill="#e9e5d8"/><rect class="cell" style="animation-delay:0.966s" x="638" y="192" width="11" height="11" rx="2" fill="#c6d8a6"/><rect class="cell" style="animation-delay:0.984s" x="652" y="192" width="11" height="11" rx="2" fill="#93bd68"/><rect class="cell" style="animation-delay:1.002s" x="666" y="192" width="11" height="11" rx="2" fill="#e9e5d8"/><rect class="cell" style="animation-delay:1.02s" x="680" y="192" width="11" height="11" rx="2" fill="#e9e5d8"/><rect class="cell" style="animation-delay:1.038s" x="694" y="192" width="11" height="11" rx="2" fill="#e9e5d8"/><rect class="cell" style="animation-delay:1.056s" x="708" y="192" width="11" height="11" rx="2" fill="#e9e5d8"/><rect class="cell" style="animation-delay:1.074s" x="722" y="192" width="11" height="11" rx="2" fill="#c6d8a6"/><rect class="cell" style="animation-delay:1.092s" x="736" y="192" width="11" height="11" rx="2" fill="#c6d8a6"/><rect class="cell" style="animation-delay:1.11s" x="750" y="192" width="11" height="11" rx="2" fill="#c6d8a6"/><rect class="cell" style="animation-delay:1.128s" x="764" y="192" width="11" height="11" rx="2" fill="#e9e5d8"/><rect class="cell" style="animation-delay:1.146s" x="778" y="192" width="11" height="11" rx="2" fill="#c6d8a6"/><rect class="cell" style="animation-delay:1.164s" x="792" y="192" width="11" height="11" rx="2" fill="#c6d8a6"/><rect class="cell" style="animation-delay:1.182s" x="806" y="192" width="11" height="11" rx="2" fill="#c6d8a6"/><rect class="cell" style="animation-delay:1.2s" x="820" y="192" width="11" height="11" rx="2" fill="#3a6b28"/><rect class="cell" style="animation-delay:1.218s" x="834" y="192" width="11" height="11" rx="2" fill="#93bd68"/><rect class="cell" style="animation-delay:1.236s" x="848" y="192" width="11" height="11" rx="2" fill="#e9e5d8"/><rect class="cell" style="animation-delay:0.3s" x="120" y="206" width="11" height="11" rx="2" fill="#e9e5d8"/><rect class="cell" style="animation-delay:0.318s" x="134" y="206" width="11" height="11" rx="2" fill="#e9e5d8"/><rect class="cell" style="animation-delay:0.336s" x="148" y="206" width="11" height="11" rx="2" fill="#e9e5d8"/><rect class="cell" style="animation-delay:0.354s" x="162" y="206" width="11" height="11" rx="2" fill="#e9e5d8"/><rect class="cell" style="animation-delay:0.372s" x="176" y="206" width="11" height="11" rx="2" fill="#e9e5d8"/><rect class="cell" style="animation-delay:0.39s" x="190" y="206" width="11" height="11" rx="2" fill="#e9e5d8"/><rect class="cell" style="animation-delay:0.408s" x="204" y="206" width="11" height="11" rx="2" fill="#e9e5d8"/><rect class="cell" style="animation-delay:0.426s" x="218" y="206" width="11" height="11" rx="2" fill="#e9e5d8"/><rect class="cell" style="animation-delay:0.444s" x="232" y="206" width="11" height="11" rx="2" fill="#e9e5d8"/><rect class="cell" style="animation-delay:0.462s" x="246" y="206" width="11" height="11" rx="2" fill="#e9e5d8"/><rect class="cell" style="animation-delay:0.48s" x="260" y="206" width="11" height="11" rx="2" fill="#e9e5d8"/><rect class="cell" style="animation-delay:0.498s" x="274" y="206" width="11" height="11" rx="2" fill="#e9e5d8"/><rect class="cell" style="animation-delay:0.516s" x="288" y="206" width="11" height="11" rx="2" fill="#e9e5d8"/><rect class="cell" style="animation-delay:0.534s" x="302" y="206" width="11" height="11" rx="2" fill="#e9e5d8"/><rect class="cell" style="animation-delay:0.552s" x="316" y="206" width="11" height="11" rx="2" fill="#e9e5d8"/><rect class="cell" style="animation-delay:0.57s" x="330" y="206" width="11" height="11" rx="2" fill="#e9e5d8"/><rect class="cell" style="animation-delay:0.588s" x="344" y="206" width="11" height="11" rx="2" fill="#e9e5d8"/><rect class="cell" style="animation-delay:0.606s" x="358" y="206" width="11" height="11" rx="2" fill="#e9e5d8"/><rect class="cell" style="animation-delay:0.624s" x="372" y="206" width="11" height="11" rx="2" fill="#e9e5d8"/><rect class="cell" style="animation-delay:0.642s" x="386" y="206" width="11" height="11" rx="2" fill="#e9e5d8"/><rect class="cell" style="animation-delay:0.66s" x="400" y="206" width="11" height="11" rx="2" fill="#e9e5d8"/><rect class="cell" style="animation-delay:0.678s" x="414" y="206" width="11" height="11" rx="2" fill="#e9e5d8"/><rect class="cell" style="animation-delay:0.696s" x="428" y="206" width="11" height="11" rx="2" fill="#e9e5d8"/><rect class="cell" style="animation-delay:0.714s" x="442" y="206" width="11" height="11" rx="2" fill="#e9e5d8"/><rect class="cell" style="animation-delay:0.732s" x="456" y="206" width="11" height="11" rx="2" fill="#c6d8a6"/><rect class="cell" style="animation-delay:0.75s" x="470" y="206" width="11" height="11" rx="2" fill="#e9e5d8"/><rect class="cell" style="animation-delay:0.768s" x="484" y="206" width="11" height="11" rx="2" fill="#e9e5d8"/><rect class="cell" style="animation-delay:0.786s" x="498" y="206" width="11" height="11" rx="2" fill="#93bd68"/><rect class="cell" style="animation-delay:0.804s" x="512" y="206" width="11" height="11" rx="2" fill="#e9e5d8"/><rect class="cell" style="animation-delay:0.822s" x="526" y="206" width="11" height="11" rx="2" fill="#e9e5d8"/><rect class="cell" style="animation-delay:0.84s" x="540" y="206" width="11" height="11" rx="2" fill="#e9e5d8"/><rect class="cell" style="animation-delay:0.858s" x="554" y="206" width="11" height="11" rx="2" fill="#e9e5d8"/><rect class="cell" style="animation-delay:0.876s" x="568" y="206" width="11" height="11" rx="2" fill="#e9e5d8"/><rect class="cell" style="animation-delay:0.894s" x="582" y="206" width="11" height="11" rx="2" fill="#e9e5d8"/><rect class="cell" style="animation-delay:0.912s" x="596" y="206" width="11" height="11" rx="2" fill="#e9e5d8"/><rect class="cell" style="animation-delay:0.93s" x="610" y="206" width="11" height="11" rx="2" fill="#e9e5d8"/><rect class="cell" style="animation-delay:0.948s" x="624" y="206" width="11" height="11" rx="2" fill="#e9e5d8"/><rect class="cell" style="animation-delay:0.966s" x="638" y="206" width="11" height="11" rx="2" fill="#c6d8a6"/><rect class="cell" style="animation-delay:0.984s" x="652" y="206" width="11" height="11" rx="2" fill="#e9e5d8"/><rect class="cell" style="animation-delay:1.002s" x="666" y="206" width="11" height="11" rx="2" fill="#e9e5d8"/><rect class="cell" style="animation-delay:1.02s" x="680" y="206" width="11" height="11" rx="2" fill="#e9e5d8"/><rect class="cell" style="animation-delay:1.038s" x="694" y="206" width="11" height="11" rx="2" fill="#e9e5d8"/><rect class="cell" style="animation-delay:1.056s" x="708" y="206" width="11" height="11" rx="2" fill="#e9e5d8"/><rect class="cell" style="animation-delay:1.074s" x="722" y="206" width="11" height="11" rx="2" fill="#3a6b28"/><rect class="cell" style="animation-delay:1.092s" x="736" y="206" width="11" height="11" rx="2" fill="#c6d8a6"/><rect class="cell" style="animation-delay:1.11s" x="750" y="206" width="11" height="11" rx="2" fill="#e9e5d8"/><rect class="cell" style="animation-delay:1.128s" x="764" y="206" width="11" height="11" rx="2" fill="#e9e5d8"/><rect class="cell" style="animation-delay:1.146s" x="778" y="206" width="11" height="11" rx="2" fill="#93bd68"/><rect class="cell" style="animation-delay:1.164s" x="792" y="206" width="11" height="11" rx="2" fill="#e9e5d8"/><rect class="cell" style="animation-delay:1.182s" x="806" y="206" width="11" height="11" rx="2" fill="#5e9a43"/><rect class="cell" style="animation-delay:1.2s" x="820" y="206" width="11" height="11" rx="2" fill="#5e9a43"/><rect class="cell" style="animation-delay:1.218s" x="834" y="206" width="11" height="11" rx="2" fill="#e9e5d8"/><rect class="cell" style="animation-delay:1.236s" x="848" y="206" width="11" height="11" rx="2" fill="#e9e5d8"/><rect class="cell" style="animation-delay:0.3s" x="120" y="220" width="11" height="11" rx="2" fill="#e9e5d8"/><rect class="cell" style="animation-delay:0.318s" x="134" y="220" width="11" height="11" rx="2" fill="#e9e5d8"/><rect class="cell" style="animation-delay:0.336s" x="148" y="220" width="11" height="11" rx="2" fill="#e9e5d8"/><rect class="cell" style="animation-delay:0.354s" x="162" y="220" width="11" height="11" rx="2" fill="#e9e5d8"/><rect class="cell" style="animation-delay:0.372s" x="176" y="220" width="11" height="11" rx="2" fill="#e9e5d8"/><rect class="cell" style="animation-delay:0.39s" x="190" y="220" width="11" height="11" rx="2" fill="#e9e5d8"/><rect class="cell" style="animation-delay:0.408s" x="204" y="220" width="11" height="11" rx="2" fill="#e9e5d8"/><rect class="cell" style="animation-delay:0.426s" x="218" y="220" width="11" height="11" rx="2" fill="#e9e5d8"/><rect class="cell" style="animation-delay:0.444s" x="232" y="220" width="11" height="11" rx="2" fill="#e9e5d8"/><rect class="cell" style="animation-delay:0.462s" x="246" y="220" width="11" height="11" rx="2" fill="#e9e5d8"/><rect class="cell" style="animation-delay:0.48s" x="260" y="220" width="11" height="11" rx="2" fill="#e9e5d8"/><rect class="cell" style="animation-delay:0.498s" x="274" y="220" width="11" height="11" rx="2" fill="#e9e5d8"/><rect class="cell" style="animation-delay:0.516s" x="288" y="220" width="11" height="11" rx="2" fill="#e9e5d8"/><rect class="cell" style="animation-delay:0.534s" x="302" y="220" width="11" height="11" rx="2" fill="#e9e5d8"/><rect class="cell" style="animation-delay:0.552s" x="316" y="220" width="11" height="11" rx="2" fill="#e9e5d8"/><rect class="cell" style="animation-delay:0.57s" x="330" y="220" width="11" height="11" rx="2" fill="#e9e5d8"/><rect class="cell" style="animation-delay:0.588s" x="344" y="220" width="11" height="11" rx="2" fill="#e9e5d8"/><rect class="cell" style="animation-delay:0.606s" x="358" y="220" width="11" height="11" rx="2" fill="#e9e5d8"/><rect class="cell" style="animation-delay:0.624s" x="372" y="220" width="11" height="11" rx="2" fill="#e9e5d8"/><rect class="cell" style="animation-delay:0.642s" x="386" y="220" width="11" height="11" rx="2" fill="#e9e5d8"/><rect class="cell" style="animation-delay:0.66s" x="400" y="220" width="11" height="11" rx="2" fill="#e9e5d8"/><rect class="cell" style="animation-delay:0.678s" x="414" y="220" width="11" height="11" rx="2" fill="#e9e5d8"/><rect class="cell" style="animation-delay:0.696s" x="428" y="220" width="11" height="11" rx="2" fill="#e9e5d8"/><rect class="cell" style="animation-delay:0.714s" x="442" y="220" width="11" height="11" rx="2" fill="#e9e5d8"/><rect class="cell" style="animation-delay:0.732s" x="456" y="220" width="11" height="11" rx="2" fill="#e9e5d8"/><rect class="cell" style="animation-delay:0.75s" x="470" y="220" width="11" height="11" rx="2" fill="#e9e5d8"/><rect class="cell" style="animation-delay:0.768s" x="484" y="220" width="11" height="11" rx="2" fill="#e9e5d8"/><rect class="cell" style="animation-delay:0.786s" x="498" y="220" width="11" height="11" rx="2" fill="#c6d8a6"/><rect class="cell" style="animation-delay:0.804s" x="512" y="220" width="11" height="11" rx="2" fill="#e9e5d8"/><rect class="cell" style="animation-delay:0.822s" x="526" y="220" width="11" height="11" rx="2" fill="#e9e5d8"/><rect class="cell" style="animation-delay:0.84s" x="540" y="220" width="11" height="11" rx="2" fill="#e9e5d8"/><rect class="cell" style="animation-delay:0.858s" x="554" y="220" width="11" height="11" rx="2" fill="#e9e5d8"/><rect class="cell" style="animation-delay:0.876s" x="568" y="220" width="11" height="11" rx="2" fill="#e9e5d8"/><rect class="cell" style="animation-delay:0.894s" x="582" y="220" width="11" height="11" rx="2" fill="#e9e5d8"/><rect class="cell" style="animation-delay:0.912s" x="596" y="220" width="11" height="11" rx="2" fill="#e9e5d8"/><rect class="cell" style="animation-delay:0.93s" x="610" y="220" width="11" height="11" rx="2" fill="#e9e5d8"/><rect class="cell" style="animation-delay:0.948s" x="624" y="220" width="11" height="11" rx="2" fill="#e9e5d8"/><rect class="cell" style="animation-delay:0.966s" x="638" y="220" width="11" height="11" rx="2" fill="#c6d8a6"/><rect class="cell" style="animation-delay:0.984s" x="652" y="220" width="11" height="11" rx="2" fill="#e9e5d8"/><rect class="cell" style="animation-delay:1.002s" x="666" y="220" width="11" height="11" rx="2" fill="#e9e5d8"/><rect class="cell" style="animation-delay:1.02s" x="680" y="220" width="11" height="11" rx="2" fill="#e9e5d8"/><rect class="cell" style="animation-delay:1.038s" x="694" y="220" width="11" height="11" rx="2" fill="#e9e5d8"/><rect class="cell" style="animation-delay:1.056s" x="708" y="220" width="11" height="11" rx="2" fill="#c6d8a6"/><rect class="cell" style="animation-delay:1.074s" x="722" y="220" width="11" height="11" rx="2" fill="#5e9a43"/><rect class="cell" style="animation-delay:1.092s" x="736" y="220" width="11" height="11" rx="2" fill="#e9e5d8"/><rect class="cell" style="animation-delay:1.11s" x="750" y="220" width="11" height="11" rx="2" fill="#e9e5d8"/><rect class="cell" style="animation-delay:1.128s" x="764" y="220" width="11" height="11" rx="2" fill="#c6d8a6"/><rect class="cell" style="animation-delay:1.146s" x="778" y="220" width="11" height="11" rx="2" fill="#93bd68"/><rect class="cell" style="animation-delay:1.164s" x="792" y="220" width="11" height="11" rx="2" fill="#5e9a43"/><rect class="cell" style="animation-delay:1.182s" x="806" y="220" width="11" height="11" rx="2" fill="#3a6b28"/><rect class="cell" style="animation-delay:1.2s" x="820" y="220" width="11" height="11" rx="2" fill="#5e9a43"/><rect class="cell" style="animation-delay:1.218s" x="834" y="220" width="11" height="11" rx="2" fill="#e9e5d8"/><rect class="cell" style="animation-delay:1.236s" x="848" y="220" width="11" height="11" rx="2" fill="#5e9a43"/><rect class="cell" style="animation-delay:0.3s" x="120" y="234" width="11" height="11" rx="2" fill="#e9e5d8"/><rect class="cell" style="animation-delay:0.318s" x="134" y="234" width="11" height="11" rx="2" fill="#e9e5d8"/><rect class="cell" style="animation-delay:0.336s" x="148" y="234" width="11" height="11" rx="2" fill="#e9e5d8"/><rect class="cell" style="animation-delay:0.354s" x="162" y="234" width="11" height="11" rx="2" fill="#e9e5d8"/><rect class="cell" style="animation-delay:0.372s" x="176" y="234" width="11" height="11" rx="2" fill="#e9e5d8"/><rect class="cell" style="animation-delay:0.39s" x="190" y="234" width="11" height="11" rx="2" fill="#e9e5d8"/><rect class="cell" style="animation-delay:0.408s" x="204" y="234" width="11" height="11" rx="2" fill="#e9e5d8"/><rect class="cell" style="animation-delay:0.426s" x="218" y="234" width="11" height="11" rx="2" fill="#e9e5d8"/><rect class="cell" style="animation-delay:0.444s" x="232" y="234" width="11" height="11" rx="2" fill="#e9e5d8"/><rect class="cell" style="animation-delay:0.462s" x="246" y="234" width="11" height="11" rx="2" fill="#e9e5d8"/><rect class="cell" style="animation-delay:0.48s" x="260" y="234" width="11" height="11" rx="2" fill="#e9e5d8"/><rect class="cell" style="animation-delay:0.498s" x="274" y="234" width="11" height="11" rx="2" fill="#e9e5d8"/><rect class="cell" style="animation-delay:0.516s" x="288" y="234" width="11" height="11" rx="2" fill="#e9e5d8"/><rect class="cell" style="animation-delay:0.534s" x="302" y="234" width="11" height="11" rx="2" fill="#e9e5d8"/><rect class="cell" style="animation-delay:0.552s" x="316" y="234" width="11" height="11" rx="2" fill="#e9e5d8"/><rect class="cell" style="animation-delay:0.57s" x="330" y="234" width="11" height="11" rx="2" fill="#e9e5d8"/><rect class="cell" style="animation-delay:0.588s" x="344" y="234" width="11" height="11" rx="2" fill="#e9e5d8"/><rect class="cell" style="animation-delay:0.606s" x="358" y="234" width="11" height="11" rx="2" fill="#e9e5d8"/><rect class="cell" style="animation-delay:0.624s" x="372" y="234" width="11" height="11" rx="2" fill="#e9e5d8"/><rect class="cell" style="animation-delay:0.642s" x="386" y="234" width="11" height="11" rx="2" fill="#c6d8a6"/><rect class="cell" style="animation-delay:0.66s" x="400" y="234" width="11" height="11" rx="2" fill="#e9e5d8"/><rect class="cell" style="animation-delay:0.678s" x="414" y="234" width="11" height="11" rx="2" fill="#c6d8a6"/><rect class="cell" style="animation-delay:0.696s" x="428" y="234" width="11" height="11" rx="2" fill="#e9e5d8"/><rect class="cell" style="animation-delay:0.714s" x="442" y="234" width="11" height="11" rx="2" fill="#e9e5d8"/><rect class="cell" style="animation-delay:0.732s" x="456" y="234" width="11" height="11" rx="2" fill="#e9e5d8"/><rect class="cell" style="animation-delay:0.75s" x="470" y="234" width="11" height="11" rx="2" fill="#e9e5d8"/><rect class="cell" style="animation-delay:0.768s" x="484" y="234" width="11" height="11" rx="2" fill="#e9e5d8"/><rect class="cell" style="animation-delay:0.786s" x="498" y="234" width="11" height="11" rx="2" fill="#e9e5d8"/><rect class="cell" style="animation-delay:0.804s" x="512" y="234" width="11" height="11" rx="2" fill="#c6d8a6"/><rect class="cell" style="animation-delay:0.822s" x="526" y="234" width="11" height="11" rx="2" fill="#e9e5d8"/><rect class="cell" style="animation-delay:0.84s" x="540" y="234" width="11" height="11" rx="2" fill="#e9e5d8"/><rect class="cell" style="animation-delay:0.858s" x="554" y="234" width="11" height="11" rx="2" fill="#e9e5d8"/><rect class="cell" style="animation-delay:0.876s" x="568" y="234" width="11" height="11" rx="2" fill="#e9e5d8"/><rect class="cell" style="animation-delay:0.894s" x="582" y="234" width="11" height="11" rx="2" fill="#e9e5d8"/><rect class="cell" style="animation-delay:0.912s" x="596" y="234" width="11" height="11" rx="2" fill="#e9e5d8"/><rect class="cell" style="animation-delay:0.93s" x="610" y="234" width="11" height="11" rx="2" fill="#e9e5d8"/><rect class="cell" style="animation-delay:0.948s" x="624" y="234" width="11" height="11" rx="2" fill="#e9e5d8"/><rect class="cell" style="animation-delay:0.966s" x="638" y="234" width="11" height="11" rx="2" fill="#e9e5d8"/><rect class="cell" style="animation-delay:0.984s" x="652" y="234" width="11" height="11" rx="2" fill="#e9e5d8"/><rect class="cell" style="animation-delay:1.002s" x="666" y="234" width="11" height="11" rx="2" fill="#e9e5d8"/><rect class="cell" style="animation-delay:1.02s" x="680" y="234" width="11" height="11" rx="2" fill="#e9e5d8"/><rect class="cell" style="animation-delay:1.038s" x="694" y="234" width="11" height="11" rx="2" fill="#e9e5d8"/><rect class="cell" style="animation-delay:1.056s" x="708" y="234" width="11" height="11" rx="2" fill="#e9e5d8"/><rect class="cell" style="animation-delay:1.074s" x="722" y="234" width="11" height="11" rx="2" fill="#e9e5d8"/><rect class="cell" style="animation-delay:1.092s" x="736" y="234" width="11" height="11" rx="2" fill="#e9e5d8"/><rect class="cell" style="animation-delay:1.11s" x="750" y="234" width="11" height="11" rx="2" fill="#e9e5d8"/><rect class="cell" style="animation-delay:1.128s" x="764" y="234" width="11" height="11" rx="2" fill="#e9e5d8"/><rect class="cell" style="animation-delay:1.146s" x="778" y="234" width="11" height="11" rx="2" fill="#e9e5d8"/><rect class="cell" style="animation-delay:1.164s" x="792" y="234" width="11" height="11" rx="2" fill="#e9e5d8"/><rect class="cell" style="animation-delay:1.182s" x="806" y="234" width="11" height="11" rx="2" fill="#e9e5d8"/><rect class="cell" style="animation-delay:1.2s" x="820" y="234" width="11" height="11" rx="2" fill="#e9e5d8"/><rect class="cell" style="animation-delay:1.218s" x="834" y="234" width="11" height="11" rx="2" fill="#e9e5d8"/></g>
<g class="rise" style="animation-delay:1.2s"><text class="lbl" x="698" y="273" font-size="11" fill="#8a8780" text-anchor="end">Less</text><rect x="706" y="264" width="11" height="11" rx="2" fill="#e9e5d8"/><rect x="722" y="264" width="11" height="11" rx="2" fill="#c6d8a6"/><rect x="738" y="264" width="11" height="11" rx="2" fill="#93bd68"/><rect x="754" y="264" width="11" height="11" rx="2" fill="#5e9a43"/><rect x="770" y="264" width="11" height="11" rx="2" fill="#3a6b28"/><text class="lbl" x="790" y="273" font-size="11" fill="#8a8780">More</text></g>
</svg>
